<?xml version="1.0" encoding="iso-8859-1"?>
<!-- Generator: Adobe Illustrator 19.0.0, SVG Export Plug-In . SVG Version: 6.00 Build 0)  -->
<svg version="1.1" id="Layer_1" xmlns="http://www.w3.org/2000/svg" xmlns:xlink="http://www.w3.org/1999/xlink" x="0px" y="0px"
	 viewBox="0 0 512 512" style="enable-background:new 0 0 512 512;" xml:space="preserve">
<path style="fill:#57565C;" d="M488.727,465.454H23.273C10.42,465.454,0,475.874,0,488.727C0,501.58,10.42,512,23.273,512h465.455
	C501.58,512,512,501.58,512,488.727C512,475.874,501.58,465.454,488.727,465.454z"/>
<path style="fill:#FF5023;" d="M488.727,248.038c-12.853,0-23.273,10.42-23.273,23.273v33.7L311.865,139.134
	c-4.299-4.642-10.304-7.336-16.631-7.457c-6.338-0.126-12.431,2.338-16.904,6.813l-60.483,60.483L40.341,7.453
	C31.609-1.972,16.884-2.535,7.453,6.204c-9.427,8.737-9.987,23.462-1.249,32.889l193.939,209.248
	c4.298,4.639,10.302,7.329,16.628,7.449c6.324,0.124,12.426-2.34,16.898-6.813l60.475-60.475l141.318,152.624h-39.826
	c-12.853,0-23.273,10.42-23.273,23.273c0,12.853,10.42,23.273,23.273,23.273h93.091c0.002,0,0.002,0,0.003,0s0.002,0,0.003,0
	c0.749,0,1.5-0.042,2.247-0.113c0.279-0.028,0.554-0.078,0.83-0.113c0.461-0.062,0.922-0.123,1.373-0.209
	c0.324-0.064,0.644-0.147,0.965-0.223c0.402-0.096,0.802-0.191,1.195-0.307c0.326-0.096,0.645-0.211,0.968-0.321
	c0.379-0.13,0.759-0.264,1.131-0.414c0.312-0.126,0.621-0.268,0.931-0.408c0.366-0.168,0.731-0.338,1.086-0.523
	c0.301-0.157,0.599-0.326,0.894-0.498c0.344-0.199,0.683-0.402,1.016-0.617c0.296-0.192,0.59-0.397,0.88-0.607
	c0.309-0.222,0.618-0.447,0.914-0.683c0.293-0.234,0.582-0.479,0.869-0.729c0.168-0.147,0.344-0.276,0.509-0.428
	c0.107-0.099,0.197-0.208,0.301-0.309c0.299-0.289,0.583-0.585,0.866-0.886c0.25-0.268,0.501-0.535,0.74-0.815
	c0.244-0.287,0.472-0.583,0.7-0.878c0.24-0.312,0.483-0.622,0.707-0.946c0.202-0.29,0.385-0.59,0.571-0.886
	c0.214-0.341,0.43-0.681,0.627-1.035c0.177-0.316,0.332-0.641,0.492-0.962c0.172-0.346,0.349-0.689,0.503-1.044
	c0.157-0.355,0.289-0.717,0.424-1.078c0.129-0.337,0.261-0.672,0.372-1.016c0.124-0.383,0.228-0.773,0.33-1.161
	c0.092-0.34,0.188-0.68,0.264-1.026c0.085-0.383,0.149-0.77,0.213-1.156c0.064-0.371,0.127-0.742,0.171-1.119
	c0.043-0.361,0.068-0.725,0.093-1.088c0.03-0.413,0.056-0.827,0.064-1.247c0.002-0.143,0.022-0.282,0.022-0.427v-93.091
	C512,258.458,501.58,248.038,488.727,248.038z"/>
<path style="fill:#D8143A;" d="M217.848,198.972L40.341,7.453C31.609-1.972,16.884-2.535,7.453,6.204
	c-9.427,8.737-9.987,23.462-1.249,32.889l193.939,209.248c4.298,4.639,10.302,7.329,16.628,7.449
	c6.324,0.124,12.426-2.34,16.898-6.813L256,226.647v-65.825L217.848,198.972z"/>
<g>
</g>
<g>
</g>
<g>
</g>
<g>
</g>
<g>
</g>
<g>
</g>
<g>
</g>
<g>
</g>
<g>
</g>
<g>
</g>
<g>
</g>
<g>
</g>
<g>
</g>
<g>
</g>
<g>
</g>
</svg>
